<?xml version="1.0" encoding="UTF-8"?>
<svg id="Layer_1" data-name="Layer 1" xmlns="http://www.w3.org/2000/svg" viewBox="0 0 298.09 347.69">
  <defs>
    <style>
      .cls-1 {
        fill: #231f20;
      }
    </style>
  </defs>
  <path class="cls-1" d="M111.67,347.69h0c-1.37-1.79-2.67-3.57-3.93-5.36,1.23,2.05,2.54,3.86,3.93,5.36Z"/>
  <path class="cls-1" d="M111.67,347.69h0c-1.37-1.79-2.67-3.57-3.93-5.36,1.23,2.05,2.54,3.86,3.93,5.36Z"/>
  <path class="cls-1" d="M149.04,13.36c-1.48,0-2.95.02-4.42.07,38.41,19.94,58.08,60.42,18.05,111.16-36.95,46.83-140.16,99.83-75.08,171.39-57.5-47.94-48.62-113.14,3.97-165.64C139.54,82.44,182.21,26.01,91.46,0c0,0,11.93,6.88,20.54,18.01C47.6,34.48,0,92.88,0,162.41c0,60.6,36.16,112.74,88.08,136.04-8.78-43.53,14.46-84.13,59-112.49,49.05-31.23,95.35-77.36,49.03-118.52,50.45,25.61,80.33,81.01,21.14,130-44.81,37.1-155.17,64.28-105.6,150.25-.01-.03-7.92-20.44-1.83-41.46,12.49,3.4,25.63,5.22,39.2,5.22,82.31,0,149.04-66.73,149.04-149.04S231.36,13.36,149.04,13.36Z"/>
  <path class="cls-1" d="M149.04,13.36c-1.48,0-2.95.02-4.42.07,38.41,19.94,58.08,60.42,18.05,111.16-36.95,46.83-140.16,99.83-75.08,171.39-57.5-47.94-48.62-113.14,3.97-165.64C139.54,82.44,182.21,26.01,91.46,0c0,0,11.93,6.88,20.54,18.01C47.6,34.48,0,92.88,0,162.41c0,60.6,36.16,112.74,88.08,136.04-8.78-43.53,14.46-84.13,59-112.49,49.05-31.23,95.35-77.36,49.03-118.52,50.45,25.61,80.33,81.01,21.14,130-44.81,37.1-155.17,64.28-105.6,150.25-.01-.03-7.92-20.44-1.83-41.46,12.49,3.4,25.63,5.22,39.2,5.22,82.31,0,149.04-66.73,149.04-149.04S231.36,13.36,149.04,13.36Z"/>
</svg>