<?xml version="1.0" encoding="UTF-8"?>
<!DOCTYPE svg PUBLIC "-//W3C//DTD SVG 1.1//EN" "http://www.w3.org/Graphics/SVG/1.1/DTD/svg11.dtd">
<svg xmlns="http://www.w3.org/2000/svg" version="1.1" width="512px" height="512px" style="shape-rendering:geometricPrecision; text-rendering:geometricPrecision; image-rendering:optimizeQuality; fill-rule:evenodd; clip-rule:evenodd" xmlns:xlink="http://www.w3.org/1999/xlink">
<g><path style="opacity:0.973" fill="#000000" d="M 234.5,32.5 C 237.099,32.5494 239.266,33.5494 241,35.5C 244.346,45.6954 249.846,54.5288 257.5,62C 268.996,69.9153 280.662,77.5819 292.5,85C 304.715,94.9276 311.548,107.761 313,123.5C 316.32,142.28 311.82,158.78 299.5,173C 297.559,173.743 295.726,173.576 294,172.5C 283.476,149.382 265.809,134.716 241,128.5C 239.373,128.625 237.873,129.125 236.5,130C 223.839,140.178 214.839,153.011 209.5,168.5C 205.332,170.486 202.832,169.152 202,164.5C 192.069,140.318 189.069,115.318 193,89.5C 198.256,64.1019 212.089,45.1019 234.5,32.5 Z"/></g>
<g><path style="opacity:0.94" fill="#000000" d="M 318.5,32.5 C 321.099,32.5494 323.266,33.5494 325,35.5C 340.454,51.6444 350.787,70.6444 356,92.5C 360.119,116.142 353.453,136.142 336,152.5C 338.922,129.696 335.255,108.03 325,87.5C 316.276,75.278 305.442,65.278 292.5,57.5C 300.58,48.4169 309.247,40.0836 318.5,32.5 Z"/></g>
<g><path style="opacity:0.995" fill="#000000" d="M 250.5,167.5 C 256.701,166.285 261.868,167.952 266,172.5C 267.443,181.392 267.943,190.392 267.5,199.5C 294.169,199.333 320.835,199.5 347.5,200C 349.333,200.5 350.5,201.667 351,203.5C 351.667,214.167 351.667,224.833 351,235.5C 350.5,237.333 349.333,238.5 347.5,239C 286.167,239.667 224.833,239.667 163.5,239C 161.667,238.5 160.5,237.333 160,235.5C 159.333,224.833 159.333,214.167 160,203.5C 160.5,201.667 161.667,200.5 163.5,200C 190.165,199.5 216.831,199.333 243.5,199.5C 243.334,191.16 243.5,182.827 244,174.5C 245.694,171.642 247.861,169.309 250.5,167.5 Z"/></g>
<g><path style="opacity:0.975" fill="#000000" d="M 175.5,263.5 C 186.833,263.5 198.167,263.5 209.5,263.5C 208.54,271.097 207.206,278.597 205.5,286C 214,294.5 222.5,303 231,311.5C 231.5,295.503 231.667,279.503 231.5,263.5C 247.5,263.5 263.5,263.5 279.5,263.5C 279.333,279.503 279.5,295.503 280,311.5C 288.5,303 297,294.5 305.5,286C 303.794,278.597 302.46,271.097 301.5,263.5C 312.833,263.5 324.167,263.5 335.5,263.5C 347.167,335.5 358.833,407.5 370.5,479.5C 359.48,479.832 348.48,479.499 337.5,478.5C 335.561,468.534 333.728,458.534 332,448.5C 314.667,431.167 297.333,413.833 280,396.5C 279.5,424.165 279.333,451.831 279.5,479.5C 263.5,479.5 247.5,479.5 231.5,479.5C 231.667,451.831 231.5,424.165 231,396.5C 213.667,413.833 196.333,431.167 179,448.5C 177.272,458.534 175.439,468.534 173.5,478.5C 162.52,479.499 151.52,479.832 140.5,479.5C 152.167,407.5 163.833,335.5 175.5,263.5 Z M 200.5,317.5 C 210.465,326.964 220.298,336.631 230,346.5C 230.667,351.5 230.667,356.5 230,361.5C 215.667,375.833 201.333,390.167 187,404.5C 191.059,375.474 195.559,346.474 200.5,317.5 Z M 309.5,317.5 C 315.4,346.233 320.233,375.233 324,404.5C 309.333,389.833 294.667,375.167 280,360.5C 279.333,356.167 279.333,351.833 280,347.5C 290.036,337.632 299.869,327.632 309.5,317.5 Z"/></g>
</svg>
